<svg width="80" height="16" viewBox="0 0 80 16" fill="none" id="svg2089381559_4581" version="1.1" xmlns="http://www.w3.org/2000/svg" xmlns:xlink="http://www.w3.org/1999/xlink" style="block-size:16px;fill:none;height:16px;inline-size:80px;perspective-origin:40px 8px;transform-origin:40px 8px;width:80px;">
<path d="M66.4062 8.08696C66.4062 6.30918 66.6864 4.82126 67.2468 3.62319C67.8072 2.42512 68.6285 1.52657 69.7106 0.927536C70.7927 0.309179 72.1067 0 73.6526 0C74.8893 0 75.9715 0.222222 76.899 0.666667C77.8265 1.11111 78.5512 1.77778 79.0729 2.66667C79.5947 3.53623 79.8555 4.59903 79.8555 5.85507V8.6087H69.3918V6.23188H76.5802V5.15942C76.5802 4.59903 76.4932 4.16425 76.3193 3.85507C76.1454 3.52657 75.8362 3.29469 75.3918 3.15942C74.9666 3.00483 74.3579 2.92754 73.5657 2.92754H73.2178C72.2903 2.92754 71.5753 3.05314 71.0729 3.30435C70.5898 3.55556 70.2517 3.96135 70.0584 4.52174C69.8652 5.08213 69.7686 5.86473 69.7686 6.86957V9.97101C69.7686 10.7246 69.9038 11.3237 70.1744 11.7681C70.4642 12.1932 70.9377 12.5121 71.5947 12.7246C72.271 12.9179 73.2082 13.0145 74.4062 13.0145C75.3724 13.0145 76.271 12.9469 77.1019 12.8116C77.9521 12.657 78.6381 12.4831 79.1599 12.2899L79.3338 12.4348V15.1304C78.7927 15.3623 78.0874 15.5652 77.2178 15.7391C76.3676 15.913 75.3918 16 74.2903 16C72.3193 16 70.7541 15.7005 69.5947 15.1014C68.4546 14.4831 67.6333 13.6039 67.1309 12.4638C66.6478 11.3043 66.4062 9.84541 66.4062 8.08696Z" fill="white" style="block-size:auto;d:path(&quot;M 66.4062 8.08696 C 66.4062 6.30918 66.6864 4.82126 67.2468 3.62319 C 67.8072 2.42512 68.6285 1.52657 69.7106 0.927536 C 70.7927 0.309179 72.1067 0 73.6526 0 C 74.8893 0 75.9715 0.222222 76.899 0.666667 C 77.8265 1.11111 78.5512 1.77778 79.0729 2.66667 C 79.5947 3.53623 79.8555 4.59903 79.8555 5.85507 V 8.6087 H 69.3918 V 6.23188 H 76.5802 V 5.15942 C 76.5802 4.59903 76.4932 4.16425 76.3193 3.85507 C 76.1454 3.52657 75.8362 3.29469 75.3918 3.15942 C 74.9666 3.00483 74.3579 2.92754 73.5657 2.92754 H 73.2178 C 72.2903 2.92754 71.5753 3.05314 71.0729 3.30435 C 70.5898 3.55556 70.2517 3.96135 70.0584 4.52174 C 69.8652 5.08213 69.7686 5.86473 69.7686 6.86957 V 9.97101 C 69.7686 10.7246 69.9038 11.3237 70.1744 11.7681 C 70.4642 12.1932 70.9377 12.5121 71.5947 12.7246 C 72.271 12.9179 73.2082 13.0145 74.4062 13.0145 C 75.3724 13.0145 76.271 12.9469 77.1019 12.8116 C 77.9521 12.657 78.6381 12.4831 79.1599 12.2899 L 79.3338 12.4348 V 15.1304 C 78.7927 15.3623 78.0874 15.5652 77.2178 15.7391 C 76.3676 15.913 75.3918 16 74.2903 16 C 72.3193 16 70.7541 15.7005 69.5947 15.1014 C 68.4546 14.4831 67.6333 13.6039 67.1309 12.4638 C 66.6478 11.3043 66.4062 9.84541 66.4062 8.08696 Z&quot;);fill:rgb(255, 255, 255);height:auto;inline-size:auto;overflow-clip-margin:0px;overflow-x:visible;overflow-y:visible;perspective-origin:0px 0px;transform-origin:0px 0px;width:auto;"></path>
<path d="M52.3745 0.347827L53.389 2.72464V15.6522H49.9688V0.347827H52.3745ZM53.505 2.63768C53.9494 1.76812 54.5195 1.11111 55.2151 0.666667C55.9108 0.222222 56.848 0 58.0267 0C59.6306 0 60.8866 0.463768 61.7948 1.3913C62.7224 2.29952 63.1861 3.72947 63.1861 5.68116V15.6522H59.7658V5.07246C59.7658 4.62802 59.6886 4.28019 59.534 4.02899C59.3987 3.75845 59.1185 3.54589 58.6934 3.3913C58.2683 3.23671 57.6499 3.15942 56.8383 3.15942C56.162 3.15942 55.476 3.24638 54.7803 3.42029C54.104 3.5942 53.5919 3.80676 53.2441 4.05797L52.8963 2.63768H53.505Z" fill="white" style="block-size:auto;d:path(&quot;M 52.3745 0.347827 L 53.389 2.72464 V 15.6522 H 49.9688 V 0.347827 H 52.3745 Z M 53.505 2.63768 C 53.9494 1.76812 54.5195 1.11111 55.2151 0.666667 C 55.9108 0.222222 56.848 0 58.0267 0 C 59.6306 0 60.8866 0.463768 61.7948 1.3913 C 62.7224 2.29952 63.1861 3.72947 63.1861 5.68116 V 15.6522 H 59.7658 V 5.07246 C 59.7658 4.62802 59.6886 4.28019 59.534 4.02899 C 59.3987 3.75845 59.1185 3.54589 58.6934 3.3913 C 58.2683 3.23671 57.6499 3.15942 56.8383 3.15942 C 56.162 3.15942 55.476 3.24638 54.7803 3.42029 C 54.104 3.5942 53.5919 3.80676 53.2441 4.05797 L 52.8963 2.63768 H 53.505 Z&quot;);fill:rgb(255, 255, 255);height:auto;inline-size:auto;overflow-clip-margin:0px;overflow-x:visible;overflow-y:visible;perspective-origin:0px 0px;transform-origin:0px 0px;width:auto;"></path>
<path d="M31.8008 8.11594C31.8008 6.33816 32.1293 4.85024 32.7863 3.65217C33.4626 2.43478 34.3612 1.52657 35.4819 0.927536C36.6027 0.309179 37.8201 0 39.1341 0C40.4674 0 41.6945 0.309179 42.8153 0.927536C43.936 1.52657 44.8249 2.43478 45.4819 3.65217C46.1389 4.85024 46.4674 6.33816 46.4674 8.11594C46.4674 9.70048 46.1583 11.0918 45.5399 12.2899C44.9216 13.4686 44.0616 14.3865 42.9602 15.0435C41.8588 15.6812 40.5834 16 39.1341 16C37.6848 16 36.4095 15.6812 35.308 15.0435C34.2066 14.3865 33.3467 13.4686 32.7283 12.2899C32.11 11.0918 31.8008 9.70048 31.8008 8.11594ZM35.2211 8.84058C35.2211 9.78744 35.3467 10.5604 35.5979 11.1594C35.8491 11.7391 36.2645 12.1836 36.8443 12.4928C37.424 12.7826 38.1873 12.9275 39.1341 12.9275C40.1003 12.9275 40.8732 12.7826 41.453 12.4928C42.0327 12.1836 42.4481 11.7295 42.6993 11.1304C42.9505 10.5314 43.0761 9.76812 43.0761 8.84058V7.15942C43.0761 6.25121 42.9409 5.49758 42.6703 4.89855C42.4191 4.28019 42.0037 3.82609 41.424 3.53623C40.8443 3.22705 40.081 3.07246 39.1341 3.07246C38.1873 3.07246 37.424 3.22705 36.8443 3.53623C36.2839 3.82609 35.8684 4.28019 35.5979 4.89855C35.3467 5.49758 35.2211 6.25121 35.2211 7.15942V8.84058Z" fill="white" style="block-size:auto;d:path(&quot;M 31.8008 8.11594 C 31.8008 6.33816 32.1293 4.85024 32.7863 3.65217 C 33.4626 2.43478 34.3612 1.52657 35.4819 0.927536 C 36.6027 0.309179 37.8201 0 39.1341 0 C 40.4674 0 41.6945 0.309179 42.8153 0.927536 C 43.936 1.52657 44.8249 2.43478 45.4819 3.65217 C 46.1389 4.85024 46.4674 6.33816 46.4674 8.11594 C 46.4674 9.70048 46.1583 11.0918 45.5399 12.2899 C 44.9216 13.4686 44.0616 14.3865 42.9602 15.0435 C 41.8588 15.6812 40.5834 16 39.1341 16 C 37.6848 16 36.4095 15.6812 35.308 15.0435 C 34.2066 14.3865 33.3467 13.4686 32.7283 12.2899 C 32.11 11.0918 31.8008 9.70048 31.8008 8.11594 Z M 35.2211 8.84058 C 35.2211 9.78744 35.3467 10.5604 35.5979 11.1594 C 35.8491 11.7391 36.2645 12.1836 36.8443 12.4928 C 37.424 12.7826 38.1873 12.9275 39.1341 12.9275 C 40.1003 12.9275 40.8732 12.7826 41.453 12.4928 C 42.0327 12.1836 42.4481 11.7295 42.6993 11.1304 C 42.9505 10.5314 43.0761 9.76812 43.0761 8.84058 V 7.15942 C 43.0761 6.25121 42.9409 5.49758 42.6703 4.89855 C 42.4191 4.28019 42.0037 3.82609 41.424 3.53623 C 40.8443 3.22705 40.081 3.07246 39.1341 3.07246 C 38.1873 3.07246 37.424 3.22705 36.8443 3.53623 C 36.2839 3.82609 35.8684 4.28019 35.5979 4.89855 C 35.3467 5.49758 35.2211 6.25121 35.2211 7.15942 V 8.84058 Z&quot;);fill:rgb(255, 255, 255);height:auto;inline-size:auto;overflow-clip-margin:0px;overflow-x:visible;overflow-y:visible;perspective-origin:0px 0px;transform-origin:0px 0px;width:auto;"></path>
<path d="M29.3279 0.347839V3.13045H17.4149V0.347839H29.3279ZM29.3279 12.8696V15.6522H17.125V12.8696H29.3279ZM17.125 12.3189L22.8062 6.05798C23.154 5.69083 23.6661 5.2174 24.3424 4.63769C25.038 4.05798 25.6081 3.60388 26.0525 3.27537V2.2319H29.3279V3.39132L23.5888 9.71016C23.2603 10.0773 22.7095 10.599 21.9366 11.2754C21.183 11.9517 20.6129 12.4445 20.2264 12.7536V13.7102H17.125V12.3189Z" fill="white" style="block-size:auto;d:path(&quot;M 29.3279 0.347839 V 3.13045 H 17.4149 V 0.347839 H 29.3279 Z M 29.3279 12.8696 V 15.6522 H 17.125 V 12.8696 H 29.3279 Z M 17.125 12.3189 L 22.8062 6.05798 C 23.154 5.69083 23.6661 5.2174 24.3424 4.63769 C 25.038 4.05798 25.6081 3.60388 26.0525 3.27537 V 2.2319 H 29.3279 V 3.39132 L 23.5888 9.71016 C 23.2603 10.0773 22.7095 10.599 21.9366 11.2754 C 21.183 11.9517 20.6129 12.4445 20.2264 12.7536 V 13.7102 H 17.125 V 12.3189 Z&quot;);fill:rgb(255, 255, 255);height:auto;inline-size:auto;overflow-clip-margin:0px;overflow-x:visible;overflow-y:visible;perspective-origin:0px 0px;transform-origin:0px 0px;width:auto;"></path>
<path d="M0 8.11594C0 6.33816 0.328502 4.85024 0.985507 3.65217C1.66184 2.43478 2.56039 1.52657 3.68116 0.927536C4.80193 0.309179 6.01932 0 7.33333 0C8.66667 0 9.89372 0.309179 11.0145 0.927536C12.1353 1.52657 13.0242 2.43478 13.6812 3.65217C14.3382 4.85024 14.6667 6.33816 14.6667 8.11594C14.6667 9.70048 14.3575 11.0918 13.7391 12.2899C13.1208 13.4686 12.2609 14.3865 11.1594 15.0435C10.058 15.6812 8.78261 16 7.33333 16C5.88406 16 4.6087 15.6812 3.50725 15.0435C2.4058 14.3865 1.54589 13.4686 0.927536 12.2899C0.309179 11.0918 0 9.70048 0 8.11594ZM3.42029 8.84058C3.42029 9.78744 3.54589 10.5604 3.7971 11.1594C4.04831 11.7391 4.46377 12.1836 5.04348 12.4928C5.62319 12.7826 6.38647 12.9275 7.33333 12.9275C8.29952 12.9275 9.07246 12.7826 9.65217 12.4928C10.2319 12.1836 10.6473 11.7295 10.8986 11.1304C11.1498 10.5314 11.2754 9.76812 11.2754 8.84058V7.15942C11.2754 6.25121 11.1401 5.49758 10.8696 4.89855C10.6184 4.28019 10.2029 3.82609 9.62319 3.53623C9.04348 3.22705 8.28019 3.07246 7.33333 3.07246C6.38647 3.07246 5.62319 3.22705 5.04348 3.53623C4.48309 3.82609 4.06763 4.28019 3.7971 4.89855C3.54589 5.49758 3.42029 6.25121 3.42029 7.15942V8.84058Z" fill="white" style="block-size:auto;d:path(&quot;M 0 8.11594 C 0 6.33816 0.328502 4.85024 0.985507 3.65217 C 1.66184 2.43478 2.56039 1.52657 3.68116 0.927536 C 4.80193 0.309179 6.01932 0 7.33333 0 C 8.66667 0 9.89372 0.309179 11.0145 0.927536 C 12.1353 1.52657 13.0242 2.43478 13.6812 3.65217 C 14.3382 4.85024 14.6667 6.33816 14.6667 8.11594 C 14.6667 9.70048 14.3575 11.0918 13.7391 12.2899 C 13.1208 13.4686 12.2609 14.3865 11.1594 15.0435 C 10.058 15.6812 8.78261 16 7.33333 16 C 5.88406 16 4.6087 15.6812 3.50725 15.0435 C 2.4058 14.3865 1.54589 13.4686 0.927536 12.2899 C 0.309179 11.0918 0 9.70048 0 8.11594 Z M 3.42029 8.84058 C 3.42029 9.78744 3.54589 10.5604 3.7971 11.1594 C 4.04831 11.7391 4.46377 12.1836 5.04348 12.4928 C 5.62319 12.7826 6.38647 12.9275 7.33333 12.9275 C 8.29952 12.9275 9.07246 12.7826 9.65217 12.4928 C 10.2319 12.1836 10.6473 11.7295 10.8986 11.1304 C 11.1498 10.5314 11.2754 9.76812 11.2754 8.84058 V 7.15942 C 11.2754 6.25121 11.1401 5.49758 10.8696 4.89855 C 10.6184 4.28019 10.2029 3.82609 9.62319 3.53623 C 9.04348 3.22705 8.28019 3.07246 7.33333 3.07246 C 6.38647 3.07246 5.62319 3.22705 5.04348 3.53623 C 4.48309 3.82609 4.06763 4.28019 3.7971 4.89855 C 3.54589 5.49758 3.42029 6.25121 3.42029 7.15942 V 8.84058 Z&quot;);fill:rgb(255, 255, 255);height:auto;inline-size:auto;overflow-clip-margin:0px;overflow-x:visible;overflow-y:visible;perspective-origin:0px 0px;transform-origin:0px 0px;width:auto;"></path>
</svg>